<?xml version="1.0" encoding="UTF-8"?>
<svg id="_레이어_1" data-name="레이어 1" xmlns="http://www.w3.org/2000/svg" version="1.1" viewBox="0 0 512 486.9">
  <defs>
    <style>
      .cls-1 {
        fill: #000;
        stroke-width: 0px;
      }
    </style>
  </defs>
  <path class="cls-1" d="M245,281.8c2.9,2.9,6.9,4.6,11,4.6s8.1-1.6,11-4.6l99.8-99.8c4.5-4.5,5.8-11.2,3.4-17-2.4-5.8-8.1-9.6-14.4-9.6h-45.2V15.6c0-8.6-7-15.6-15.6-15.6h-78c-8.6,0-15.6,7-15.6,15.6v139.8h-45.2c-6.3,0-12,3.8-14.4,9.6-2.4,5.8-1.1,12.5,3.4,17l99.8,99.8Z"/>
  <path class="cls-1" d="M479.9,322.6H32.1c-17.7,0-32.1,14.4-32.1,32.1v100.1c0,17.7,14.4,32.1,32.1,32.1h447.8c17.7,0,32.1-14.4,32.1-32.1v-100.1c0-17.7-14.4-32.1-32.1-32.1ZM153.7,425.9h-68.2c-11.7,0-21.1-9.5-21.1-21.1s9.5-21.1,21.1-21.1h68.2c11.7,0,21.1,9.5,21.1,21.1s-9.5,21.1-21.1,21.1ZM337.2,430.8c-14.4,0-26-11.6-26-26s11.6-26,26-26,26,11.6,26,26-11.6,26-26,26ZM421.7,430.8c-14.4,0-26-11.6-26-26s11.6-26,26-26,26,11.6,26,26-11.6,26-26,26Z"/>
</svg>