<?xml version="1.0" encoding="UTF-8"?>
<svg id="_레이어_1" data-name="레이어 1" xmlns="http://www.w3.org/2000/svg" version="1.1" viewBox="0 0 512 565.6831079">
  <defs>
    <style>
      .cls-1 {
        fill: #000;
        stroke-width: 0px;
      }
    </style>
  </defs>
  <path class="cls-1" d="M438.5262082,152.2090853l-79.4197385-71.2561038c-9.2543172-8.3030566-10.131854-22.5641922-1.966227-31.9537929l35.8637654-41.2395078c8.2673269-9.5065448,22.6472705-10.4034905,32.0168668-1.9970449l79.4200152,71.256009c9.2543702,8.3030643,10.1319088,22.5642625,1.9662274,31.953875l-35.8640421,41.2396026c-8.2673505,9.5065205-22.6472927,10.4034293-32.0168671,1.9969628Z"/>
  <path class="cls-1" d="M418.4877359,173.5421633l-79.1158318-70.9821686c-9.408662-8.4423758-23.837685-7.5916231-32.2049532,1.8992315L38.2646212,409.5105066,1.0934836,533.687067c-6.0858332,20.3157925,14.3507679,38.4308401,33.5954848,29.7831625l116.7203818-52.4466688L420.3718761,205.9018262c8.3431897-9.4643396,7.5004433-23.9407718-1.8841403-32.3596628Z"/>
</svg>