<?xml version="1.0" encoding="UTF-8"?>
<svg id="_레이어_1" data-name="레이어 1" xmlns="http://www.w3.org/2000/svg" version="1.1" viewBox="0 0 512 473.5">
  <defs>
    <style>
      .cls-1 {
        fill: #000;
        stroke-width: 0px;
      }
    </style>
  </defs>
  <path class="cls-1" d="M21.5,99.9h28.7c9.4,32.7,39.3,56.8,75,56.8s65.6-24.1,75-56.8h290.2c11.9,0,21.5-9.6,21.5-21.5s-9.6-21.5-21.5-21.5H200.2C190.8,24.1,161,0,125.2,0S59.7,24.1,50.3,56.8h-28.7c-11.9,0-21.5,9.6-21.5,21.5s9.6,21.5,21.5,21.5ZM125.2,42c19.6,0,35.4,15.6,36.1,35,0,.5-.3.9-.3,1.4s.2.9.3,1.4c-.8,19.4-16.6,35-36.1,35s-35.3-15.6-36.1-35c0-.5.3-.9.3-1.4s-.2-.9-.3-1.4c.8-19.4,16.5-35,36.1-35Z"/>
  <path class="cls-1" d="M490.5,215.2h-27c-9.4-32.7-39.3-56.8-75-56.8s-65.5,24.1-75,56.8H21.5c-11.9,0-21.5,9.6-21.5,21.5s9.6,21.5,21.5,21.5h292c9.4,32.7,39.3,56.8,75,56.8s65.5-24.1,75-56.8h27c11.9,0,21.5-9.6,21.5-21.5s-9.6-21.5-21.5-21.5ZM388.5,273.1c-19.6,0-35.3-15.6-36.1-35,0-.5.3-.9.3-1.4s-.2-.9-.3-1.4c.8-19.4,16.5-35,36.1-35s35.3,15.6,36.1,35c0,.5-.3.9-.3,1.4s.2.9.3,1.4c-.8,19.4-16.5,35-36.1,35Z"/>
  <path class="cls-1" d="M490.5,373.6H200.2c-9.4-32.7-39.3-56.8-75-56.8s-65.5,24.1-75,56.8h-28.7c-11.9,0-21.5,9.6-21.5,21.5s9.6,21.5,21.5,21.5h28.7c9.4,32.7,39.3,56.8,75,56.8s65.6-24.1,75-56.8h290.2c11.9,0,21.5-9.6,21.5-21.5s-9.6-21.5-21.5-21.5ZM125.2,431.5c-19.6,0-35.3-15.6-36.1-35,0-.5.3-.9.3-1.4s-.2-.9-.3-1.4c.8-19.4,16.5-35,36.1-35s35.4,15.6,36.1,35c0,.5-.3.9-.3,1.4s.2.9.3,1.4c-.8,19.4-16.6,35-36.1,35Z"/>
</svg>