<?xml version="1.0" encoding="UTF-8"?>
<svg id="_레이어_1" data-name="레이어 1" xmlns="http://www.w3.org/2000/svg" version="1.1" viewBox="0 0 512 378.9">
  <defs>
    <style>
      .cls-1 {
        fill: #000;
        stroke-width: 0px;
      }
    </style>
  </defs>
  <path class="cls-1" d="M18.2,0h475.7c10.2,0,18.2,11.4,18.2,25.9h0c0,14.5-8,25.9-18.2,25.9H18.2C8,51.8,0,40.4,0,25.9h0C0,11.4,8,0,18.2,0Z"/>
  <path class="cls-1" d="M18.2,163.5h475.7c10.2,0,18.2,11.4,18.2,25.9h0c0,14.5-8,25.9-18.2,25.9H18.2c-10.2,0-18.2-11.4-18.2-25.9h0c0-14.5,8-25.9,18.2-25.9Z"/>
  <path class="cls-1" d="M18.2,327.1h475.7c10.2,0,18.2,11.4,18.2,25.9h0c0,14.5-8,25.9-18.2,25.9H18.2c-10.2,0-18.2-11.4-18.2-25.9h0c0-14.5,8-25.9,18.2-25.9Z"/>
</svg>