<?xml version="1.0" encoding="UTF-8"?>
<svg id="_레이어_1" data-name="레이어 1" xmlns="http://www.w3.org/2000/svg" version="1.1" viewBox="0 0 426.7 512">
  <defs>
    <style>
      .cls-1 {
        fill: #000;
        stroke-width: 0px;
      }
    </style>
  </defs>
  <path class="cls-1" d="M320,426.7c-11.8,0-21.3,9.6-21.3,21.3s-9.6,21.3-21.3,21.3H64c-11.8,0-21.3-9.6-21.3-21.3V64c0-11.8,9.6-21.3,21.3-21.3h213.3c11.8,0,21.3,9.6,21.3,21.3s9.6,21.3,21.3,21.3,21.3-9.6,21.3-21.3-1.7-17-5-24.9c-3.2-7.6-7.8-14.5-13.7-20.3-5.9-5.9-12.7-10.5-20.3-13.7-7.9-3.3-16.3-5-24.9-5H64c-8.6,0-17,1.7-24.9,5-7.6,3.2-14.5,7.8-20.3,13.7s-10.5,12.7-13.7,20.3C1.7,47,0,55.4,0,64v384c0,8.6,1.7,17,5,24.9,3.2,7.6,7.8,14.5,13.7,20.3,5.9,5.9,12.7,10.5,20.3,13.7,7.9,3.3,16.3,5,24.9,5h213.3c8.6,0,17-1.7,24.9-5,7.6-3.2,14.5-7.8,20.3-13.7,5.9-5.9,10.5-12.7,13.7-20.3,3.3-7.9,5-16.3,5-24.9s-9.6-21.3-21.3-21.3Z"/>
  <path class="cls-1" d="M420.4,240.8l-127.7-127.9c-8.3-8.3-21.8-8.3-30.2,0-8.3,8.3-8.3,21.8,0,30.2l91.5,91.6H112.5c-15,0-27.1,9.6-27.1,21.3s12.2,21.3,27.1,21.3h241.2l-91.5,91.6c-8.3,8.3-8.3,21.8,0,30.2,4.2,4.2,9.6,6.2,15.1,6.2,5.5,0,10.9-2.1,15.1-6.3l128-128.1c8.3-8.3,8.3-21.8,0-30.2Z"/>
</svg>