<?xml version="1.0" encoding="UTF-8"?>
<svg id="_레이어_1" data-name=" 레이어 1" xmlns="http://www.w3.org/2000/svg" version="1.1" viewBox="0 0 350 90.2">
  <defs>
    <style>
      .cls-1 {
        fill: #000;
      }

      .cls-1, .cls-2 {
        stroke-width: 0px;
      }

      .cls-2 {
        fill: #fff;
      }
    </style>
  </defs>
  <g>
    <path class="cls-1" d="M108.308,12.86h13.357v53.433h27.74v11.042h-41.097V12.86Z"/>
    <path class="cls-1" d="M210.608,62.864c-2.598,4.988-6.174,8.794-10.73,11.42-4.558,2.628-9.715,3.942-15.474,3.942s-10.916-1.314-15.472-3.942c-4.558-2.626-8.134-6.44-10.732-11.443-2.596-5-3.895-10.914-3.895-17.743s1.298-12.786,3.895-17.787c2.598-5.002,6.174-8.81,10.732-11.422,4.556-2.612,9.714-3.918,15.472-3.918s10.916,1.305,15.474,3.918c4.556,2.612,8.132,6.42,10.73,11.422,2.596,5.002,3.896,10.93,3.896,17.787s-1.3,12.779-3.896,17.766ZM198.942,33.52c-1.351-3.175-3.272-5.587-5.766-7.236-2.494-1.647-5.417-2.471-8.773-2.471-3.325,0-6.226.824-8.705,2.471-2.478,1.648-4.408,4.061-5.787,7.236-1.381,3.178-2.071,7.036-2.071,11.578,0,4.512.69,8.348,2.071,11.51,1.38,3.161,3.309,5.573,5.787,7.236,2.48,1.663,5.38,2.508,8.705,2.538,3.355-.03,6.279-.875,8.773-2.538,2.494-1.663,4.415-4.075,5.766-7.236,1.349-3.162,2.025-6.999,2.025-11.51,0-4.542-.676-8.399-2.025-11.578Z"/>
    <path class="cls-1" d="M264.172,28.378c-1.261-1.47-2.812-2.598-4.652-3.385-1.841-.785-3.934-1.18-6.279-1.18-3.325,0-6.242.831-8.75,2.494-2.51,1.663-4.468,4.089-5.877,7.28-1.411,3.192-2.115,7.013-2.115,11.466,0,4.482.697,8.311,2.092,11.487s3.355,5.603,5.877,7.28c2.524,1.678,5.492,2.531,8.905,2.561,3.058,0,5.715-.564,7.971-1.693,2.255-1.127,3.962-2.715,5.12-4.765,1.158-2.048,1.751-4.466,1.781-7.257l2.761.4h-16.742v-10.196h26.894v8.104c0,5.552-1.173,10.382-3.518,14.494s-5.633,7.266-9.862,9.462c-4.231,2.197-9.047,3.295-14.45,3.295-6.026,0-11.332-1.344-15.918-4.031s-8.141-6.523-10.663-11.51c-2.524-4.986-3.785-10.835-3.785-17.543,0-6.767,1.305-12.66,3.918-17.676,2.612-5.018,6.189-8.854,10.73-11.51s9.678-3.985,15.407-3.985c4.779,0,9.165.913,13.157,2.738s7.243,4.386,9.752,7.681c2.508,3.295,4.059,7.05,4.653,11.265h-13.626c-.594-2.048-1.521-3.806-2.784-5.276Z"/>
    <path class="cls-1" d="M346.104,62.864c-2.598,4.988-6.174,8.794-10.73,11.42-4.558,2.628-9.715,3.942-15.474,3.942s-10.916-1.314-15.472-3.942c-4.558-2.626-8.134-6.44-10.732-11.443-2.596-5-3.895-10.914-3.895-17.743s1.298-12.786,3.895-17.787c2.598-5.002,6.174-8.81,10.732-11.422,4.556-2.612,9.714-3.918,15.472-3.918s10.916,1.305,15.474,3.918c4.556,2.612,8.132,6.42,10.73,11.422,2.596,5.002,3.896,10.93,3.896,17.787s-1.3,12.779-3.896,17.766ZM334.438,33.52c-1.351-3.175-3.272-5.587-5.766-7.236-2.494-1.647-5.417-2.471-8.773-2.471-3.325,0-6.226.824-8.705,2.471-2.478,1.648-4.408,4.061-5.787,7.236-1.381,3.178-2.071,7.036-2.071,11.578,0,4.512.69,8.348,2.071,11.51,1.38,3.161,3.309,5.573,5.787,7.236,2.48,1.663,5.38,2.508,8.705,2.538,3.355-.03,6.279-.875,8.773-2.538s4.415-4.075,5.766-7.236c1.349-3.162,2.025-6.999,2.025-11.51,0-4.542-.676-8.399-2.025-11.578Z"/>
  </g>
  <g>
    <circle class="cls-1" cx="45.099" cy="45.099" r="45.099"/>
    <g>
      <path class="cls-2" d="M45.099,32.846c-6.756,0-12.252,5.496-12.252,12.252s5.496,12.252,12.252,12.252,12.252-5.496,12.252-12.252-5.496-12.252-12.252-12.252ZM45.099,52.009c-3.811,0-6.91-3.1-6.91-6.91s3.1-6.91,6.91-6.91,6.91,3.1,6.91,6.91-3.1,6.91-6.91,6.91Z"/>
      <path class="cls-2" d="M74.765,43.814c-.393-.717-9.86-17.56-29.667-17.56-8.212,0-15.944,3.031-22.361,8.766-3.436,3.071-7.634,8.325-7.634,10.079,0,.449.113.891.329,1.285.393.717,9.86,17.56,29.666,17.56s29.274-16.843,29.666-17.56c.439-.8.439-1.769,0-2.57ZM45.099,58.601c-13.844,0-21.749-9.882-24.181-13.504,2.433-3.622,10.338-13.502,24.18-13.502s21.754,9.887,24.182,13.503c-2.432,3.621-10.338,13.503-24.181,13.503Z"/>
    </g>
  </g>
</svg>