<?xml version="1.0" encoding="UTF-8"?>
<svg id="_레이어_1" data-name=" 레이어 1" xmlns="http://www.w3.org/2000/svg" version="1.1" viewBox="0 0 512 512">
  <defs>
    <style>
      .cls-1 {
        fill: #000;
        stroke-width: 0px;
      }
    </style>
  </defs>
  <path class="cls-1" d="M328.918,233.624c33.385-23.188,55.376-61.695,55.376-105.33C384.294,57.553,326.741,0,256,0S127.706,57.553,127.706,128.294c0,43.882,22.201,82.624,55.903,105.767C88.277,273.185,28.137,386.433,28.137,493.588c0,10.162,8.25,18.412,18.412,18.412h418.904c10.162,0,18.412-8.25,18.412-18.412,0-107.136-57.666-221.157-154.945-259.965ZM164.529,128.294c0-50.432,41.038-91.471,91.471-91.471s91.471,41.038,91.471,91.471-41.038,91.471-91.471,91.471-91.471-41.038-91.471-91.471ZM65.652,475.177c7.949-106.931,83.898-218.59,190.348-218.59,111.674,0,183.077,110.168,190.408,218.59H65.652Z"/>
</svg>