<?xml version="1.0" encoding="UTF-8"?>
<svg id="_레이어_1" data-name=" 레이어 1" xmlns="http://www.w3.org/2000/svg" version="1.1" viewBox="0 0 512 512">
  <defs>
    <style>
      .cls-1 {
        fill: #000;
        stroke-width: 0px;
      }
    </style>
  </defs>
  <path class="cls-1" d="M496.2,391.7h-57.5v-162.7h57.5c7,0,13.1-4.6,15.1-11.2,2-6.7-.6-13.9-6.4-17.7L263.1,40.6c-5.3-3.5-12.2-3.5-17.4,0L7,200.2c-5.8,3.9-8.3,11-6.3,17.7s8.1,11.2,15.1,11.2h57.5v162.7H15.8c-8.7,0-15.8,7-15.8,15.7v50.7c0,8.7,7.1,15.8,15.8,15.8h480.5c8.7,0,15.8-7.1,15.8-15.8v-50.7c0-8.7-7.1-15.8-15.8-15.8h0ZM407.2,391.7h-79.8v-162.7h79.8v162.7ZM216.1,391.7v-162.7h79.8v162.7h-79.8ZM254.5,72.7l189.2,124.8H67.7l186.8-124.8ZM104.8,229h79.8v162.7h-79.8v-162.7h0ZM480.5,442.4H31.5v-19.1h448.9v19.1h.1Z"/>
</svg>