<?xml version="1.0" encoding="UTF-8"?>
<svg id="_레이어_1" data-name=" 레이어 1" xmlns="http://www.w3.org/2000/svg" version="1.1" viewBox="0 0 512 512">
  <defs>
    <style>
      .cls-1 {
        fill: #000;
        stroke-width: 0px;
      }
    </style>
  </defs>
  <path class="cls-1" d="M507,284.7L266.5,44.2c-6.5-6.4-17.9-6.4-24.3,0L62.8,223.6h0l-57.8,57.8c-6.7,6.7-6.7,17.6,0,24.3,6.7,6.7,17.6,6.7,24.3,0l28.4-28.4v178.1c0,9.5,7.7,17.2,17.2,17.2h127.2c9.5,0,17.2-7.7,17.2-17.2v-156.2h69.9v156.2c0,9.5,7.7,17.2,17.2,17.2h127.2c9.5,0,17.2-7.7,17.2-17.2v-178.2l31.8,31.8c3.4,3.4,7.8,5,12.2,5s8.8-1.7,12.2-5c6.7-6.7,6.7-17.6,0-24.3ZM416.5,438.2h-92.8v-156.2c0-9.5-7.7-17.2-17.2-17.2h-104.3c-9.5,0-17.2,7.7-17.2,17.2v156.2h-92.8v-195.3L254.3,80.7l162.1,162.1v195.3h0Z"/>
</svg>