<?xml version="1.0" encoding="UTF-8"?>
<svg id="_레이어_1" data-name=" 레이어 1" xmlns="http://www.w3.org/2000/svg" version="1.1" viewBox="0 0 512 512">
  <defs>
    <style>
      .cls-1 {
        fill: #000;
        stroke-width: 0px;
      }
    </style>
  </defs>
  <path class="cls-1" d="M435.3,205.3v47.2h-10.5c-1.2-16.4-7.2-30.4-18.4-41.5-17.9-17.9-44.4-23.8-60.5-25.8-.2-18.1-4.1-50.2-26.2-75.5-20.3-23.2-50.8-34.9-90.5-34.9s-81.5,12.5-101.9,37.3c-15.4,18.8-19,40.1-19.3,54.5-21.9-.3-58.5,3.3-83.4,25.5C8.3,206.7,0,226.6,0,251.2s8.7,51,25.9,66.5c21.5,19.5,50.1,21.9,63.3,21.9s5.3-.1,6.4-.2h179.8l-35.8,31,76.7,66.8v-47.2h85.1v-39.1h-85.1v-11.5h20.9c1.6,0,40.4.6,66.1-24.5,6.9-6.7,12-14.6,15.7-23.5h16.2v47l76.8-66.6-76.7-66.8v.3ZM384.8,295.8c-17.6,17.3-46.8,17-47.1,16.9h-21.2v-8.8l-10.1,8.8H93.7c-.3,0-30.7,2.6-50-15-11.2-10.2-16.9-25.9-16.9-46.6s5.1-29.6,15.6-39c18.1-16.2,47.8-18.8,64.9-18.8s13.3.6,13.5.6c4.3.5,8.4-1.1,11.3-4.2,2.9-3.1,4.1-7.4,3.4-11.6,0-.3-5-28,12.7-49.3,15.1-18.1,42.3-27.3,81-27.3s55.2,8.6,70.3,25.6c24.1,27.2,19.3,68.2,19.2,68.6-.5,3.8.7,7.7,3.3,10.5,2.5,2.9,6.2,4.5,10,4.5s60.8.6,66,41.6h-47.9v39.1h38.1c-1.1,1.4-2.1,2.9-3.4,4.2v.2Z"/>
</svg>