<?xml version="1.0" encoding="UTF-8"?>
<svg id="_레이어_1" data-name=" 레이어 1" xmlns="http://www.w3.org/2000/svg" version="1.1" viewBox="0 0 512 314.1078735">
  <defs>
    <style>
      .cls-1 {
        fill: #000;
        stroke-width: 0px;
      }
    </style>
  </defs>
  <path class="cls-1" d="M256,58.4914238c-54.3451126,0-98.5592064,44.2140938-98.5592064,98.5658194,0,54.3451126,44.2140938,98.5592064,98.5592064,98.5592064s98.5592064-44.2140938,98.5592064-98.5592064c0-54.3517256-44.2140938-98.5658194-98.5592064-98.5658194ZM256,228.5298615c-39.4131019,0-71.4726183-32.0595164-71.4726183-71.4726183s32.0595164-71.4792312,71.4726183-71.4792312,71.4726183,32.0661294,71.4726183,71.4792312-32.0595164,71.4726183-71.4726183,71.4726183Z"/>
  <path class="cls-1" d="M510.33354,150.5435007C506.9609423,144.4000827,425.800372,0,255.9933871,0,185.6648068,0,119.3965695,26.0020665,64.3438727,75.1957016,30.0756355,105.8268237,0,147.8784873,0,157.0572432c0,2.2748502.5753255,4.5166357,1.66646,6.5137425,3.3725976,6.1434181,84.533168,150.5368878,254.33354,150.5368878s250.9609423-144.3934697,254.33354-150.5368878c2.2219467-4.060343,2.2219467-8.967142,0-13.027485ZM256,287.0212854c-133.839223,0-209.0415375-102.77826-226.5922711-129.9706551C46.9716884,129.8450093,122.1740029,27.0865881,255.9933871,27.0865881c133.83261,0,209.0415375,102.771647,226.5922711,129.9706551-17.5507336,27.1990081-92.7530482,129.9640422-226.5856582,129.9640422Z"/>
</svg>