<?xml version="1.0" encoding="UTF-8"?>
<svg id="_레이어_1" data-name="레이어 1" xmlns="http://www.w3.org/2000/svg" version="1.1" viewBox="0 0 512 512">
  <defs>
    <style>
      .cls-1 {
        fill: #000;
      }

      .cls-1, .cls-2 {
        stroke-width: 0px;
      }

      .cls-2 {
        fill: #fff;
      }
    </style>
  </defs>
  <circle class="cls-1" cx="256" cy="256" r="256"/>
  <g>
    <path class="cls-2" d="M256,186.5c-38.3,0-69.5,31.2-69.5,69.5s31.2,69.5,69.5,69.5,69.5-31.2,69.5-69.5-31.2-69.5-69.5-69.5ZM256,295.3c-21.6,0-39.3-17.6-39.3-39.3s17.6-39.3,39.3-39.3,39.3,17.6,39.3,39.3-17.6,39.3-39.3,39.3Z"/>
    <path class="cls-2" d="M424.4,248.7c-2.3-4.1-56-99.7-168.4-99.7s-90.5,17.2-127,49.7c-19.5,17.4-43.3,47.2-43.3,57.2s.7,5,1.8,7.3c2.3,4.1,56,99.7,168.4,99.7s166.1-95.6,168.4-99.7c2.5-4.6,2.5-10,0-14.6h.1ZM256,332.7c-78.6,0-123.4-56.1-137.2-76.7,13.8-20.6,58.7-76.7,137.2-76.7s123.4,56.1,137.2,76.7c-13.8,20.6-58.7,76.7-137.2,76.7Z"/>
  </g>
</svg>