<?xml version="1.0" encoding="UTF-8"?>
<svg id="_레이어_1" data-name=" 레이어 1" xmlns="http://www.w3.org/2000/svg" version="1.1" viewBox="0 0 512 512">
  <defs>
    <style>
      .cls-1 {
        fill: #000;
      }

      .cls-1, .cls-2 {
        stroke-width: 0px;
      }

      .cls-2 {
        fill: #fff;
      }
    </style>
  </defs>
  <circle class="cls-1" cx="256" cy="256" r="256"/>
  <g>
    <path class="cls-2" d="M256.0005288,186.4500963c-38.3497492,0-69.5499037,31.2001545-69.5499037,69.5499037s31.2001545,69.5499037,69.5499037,69.5499037,69.5499037-31.2001545,69.5499037-69.5499037-31.2001545-69.5499037-69.5499037-69.5499037ZM256.0005288,295.2254688c-21.6306969,0-39.2254688-17.5947719-39.2254688-39.2254688s17.5947719-39.2254688,39.2254688-39.2254688,39.2254688,17.5947719,39.2254688,39.2254688-17.5947719,39.2254688-39.2254688,39.2254688Z"/>
    <path class="cls-2" d="M424.4009829,248.7065673c-2.229489-4.0697693-55.9699042-99.6797342-168.4046846-99.6797342-46.6162037,0-90.5079464,17.2055631-126.9328047,49.759487-19.5069712,17.4297812-43.3333128,47.2550136-43.3333128,57.2136799,0,2.5510092.6430405,5.0554827,1.869894,7.2934327,2.229489,4.0697693,55.9699042,99.6797342,168.4004541,99.6797342s166.1709651-95.6099649,168.4004541-99.6797342c2.4917818-4.5435886,2.4917818-10.0432768,0-14.5868654ZM256.0005288,332.648732c-78.582084,0-123.4595401-56.0968201-137.2637575-76.6529626,13.808448-20.560373,58.6816736-76.6445015,137.259527-76.6445015,78.6032366,0,123.4849232,56.1222033,137.2679881,76.648732-13.8042175,20.5561425-58.6816736,76.648732-137.2637575,76.648732Z"/>
  </g>
</svg>